<?xml version="1.0" encoding="UTF-8" standalone="no"?>
<!-- Generator: Adobe Illustrator 16.0.0, SVG Export Plug-In . SVG Version: 6.00 Build 0)  -->

<svg
   xmlns:dc="http://purl.org/dc/elements/1.1/"
   xmlns:cc="http://creativecommons.org/ns#"
   xmlns:rdf="http://www.w3.org/1999/02/22-rdf-syntax-ns#"
   xmlns:svg="http://www.w3.org/2000/svg"
   xmlns="http://www.w3.org/2000/svg"
   xmlns:sodipodi="http://sodipodi.sourceforge.net/DTD/sodipodi-0.dtd"
   xmlns:inkscape="http://www.inkscape.org/namespaces/inkscape"
   version="1.1"
   id="Capa_1"
   x="0px"
   y="0px"
   width="167.548px"
   height="167.548px"
   viewBox="0 0 167.548 167.548"
   style="enable-background:new 0 0 167.548 167.548;"
   xml:space="preserve"
   inkscape:version="0.91 r13725"
   sodipodi:docname="gamipress.svg"><metadata
     id="metadata47"><rdf:RDF><cc:Work
         rdf:about=""><dc:format>image/svg+xml</dc:format><dc:type
           rdf:resource="http://purl.org/dc/dcmitype/StillImage" /><dc:title></dc:title></cc:Work></rdf:RDF></metadata><defs
     id="defs45" /><sodipodi:namedview
     pagecolor="#ffffff"
     bordercolor="#666666"
     borderopacity="1"
     objecttolerance="10"
     gridtolerance="10"
     guidetolerance="10"
     inkscape:pageopacity="0"
     inkscape:pageshadow="2"
     inkscape:window-width="1920"
     inkscape:window-height="1017"
     id="namedview43"
     showgrid="false"
     inkscape:zoom="3.9839854"
     inkscape:cx="62.361134"
     inkscape:cy="92.562161"
     inkscape:window-x="-8"
     inkscape:window-y="-8"
     inkscape:window-maximized="1"
     inkscape:current-layer="Capa_1" /><g
     id="g3"><g
       id="g5"><path
         d="m 131.973,136.242 -96.377,0 L 8.108,57.111 42.507,82.363 c -0.172,0.873 -0.264,1.727 -0.264,2.584 0,7.815 6.359,14.175 14.175,14.175 7.812,0 14.175,-6.359 14.175,-14.175 0,-6.091 -3.797,-11.274 -9.273,-13.255 l 22.465,-47.363 22.396,47.239 c -5.627,1.898 -9.629,7.193 -9.629,13.384 0,7.815 6.359,14.175 14.175,14.175 7.81,0 14.175,-6.359 14.175,-14.175 0,-1.036 -0.121,-2.077 -0.364,-3.103 l 34.984,-24.922 z"
         id="path9"
         inkscape:connector-curvature="0"
         sodipodi:nodetypes="ccccssscccsssccc" /></g></g><g
     id="g13" /><g
     id="g15" /><g
     id="g17" /><g
     id="g19" /><g
     id="g21" /><g
     id="g23" /><g
     id="g25" /><g
     id="g27" /><g
     id="g29" /><g
     id="g31" /><g
     id="g33" /><g
     id="g35" /><g
     id="g37" /><g
     id="g39" /><g
     id="g41" /></svg>