<?xml version="1.0" encoding="UTF-8" standalone="no"?>
<svg
   xmlns:dc="http://purl.org/dc/elements/1.1/"
   xmlns:cc="http://creativecommons.org/ns#"
   xmlns:rdf="http://www.w3.org/1999/02/22-rdf-syntax-ns#"
   xmlns:svg="http://www.w3.org/2000/svg"
   xmlns="http://www.w3.org/2000/svg"
   xmlns:sodipodi="http://sodipodi.sourceforge.net/DTD/sodipodi-0.dtd"
   xmlns:inkscape="http://www.inkscape.org/namespaces/inkscape"
   width="721.27448"
   height="119.37387"
   viewBox="0 0 721.27448 119.37387"
   version="1.1"
   xml:space="preserve"
   style="clip-rule:evenodd;fill-rule:evenodd;stroke-linejoin:round;stroke-miterlimit:1.41420996"
   id="svg55"
   sodipodi:docname="gamipress-logo-inverse.svg"
   inkscape:version="0.92.4 (5da689c313, 2019-01-14)"><metadata
     id="metadata61"><rdf:RDF><cc:Work
         rdf:about=""><dc:format>image/svg+xml</dc:format><dc:type
           rdf:resource="http://purl.org/dc/dcmitype/StillImage" /><dc:title></dc:title></cc:Work></rdf:RDF></metadata><defs
     id="defs59" /><sodipodi:namedview
     pagecolor="#ffffff"
     bordercolor="#666666"
     borderopacity="1"
     objecttolerance="10"
     gridtolerance="10"
     guidetolerance="10"
     inkscape:pageopacity="0"
     inkscape:pageshadow="2"
     inkscape:window-width="1920"
     inkscape:window-height="1017"
     id="namedview57"
     showgrid="false"
     inkscape:zoom="0.79318182"
     inkscape:cx="-72.143712"
     inkscape:cy="-35.267528"
     inkscape:window-x="-8"
     inkscape:window-y="-8"
     inkscape:window-maximized="1"
     inkscape:current-layer="text4582" /><g
     id="GamiPress"
     style="fill:#ffffff;fill-opacity:1"
     transform="translate(-85,-140.62613)"><g
       transform="matrix(0.989523,0,0,0.989523,100,164.834)"
       id="g10"
       style="fill:#ffffff;fill-opacity:1" /><g
       transform="matrix(0.989523,0,0,0.989523,100,164.834)"
       id="g52"
       style="fill:#ffffff;fill-opacity:1" /></g><g
     id="g4578"
     transform="matrix(1.0666649,0,0,1.0666667,-191.57276,-371.89344)"
     style="fill:#0098d7;fill-opacity:1"><g
       id="g3"
       style="fill:#0098d7;fill-opacity:1"><g
         id="g5"
         style="fill:#0098d7;fill-opacity:1"><path
           sodipodi:nodetypes="ccccssscccsssccc"
           inkscape:connector-curvature="0"
           id="path9"
           d="m 303.46476,460.56309 h -96.377 l -27.488,-79.131 34.399,25.252 c -0.172,0.873 -0.264,1.727 -0.264,2.584 0,7.815 6.359,14.175 14.175,14.175 7.812,0 14.175,-6.359 14.175,-14.175 0,-6.091 -3.797,-11.274 -9.273,-13.255 l 22.465,-47.363 22.396,47.239 c -5.627,1.898 -9.629,7.193 -9.629,13.384 0,7.815 6.359,14.175 14.175,14.175 7.81,0 14.175,-6.359 14.175,-14.175 0,-1.036 -0.121,-2.077 -0.364,-3.103 l 34.984,-24.922 z"
           style="fill:#0098d7;fill-opacity:1" /></g></g><g
       id="g13"
       style="fill:#0098d7;fill-opacity:1" /><g
       id="g15"
       style="fill:#0098d7;fill-opacity:1" /><g
       id="g17"
       style="fill:#0098d7;fill-opacity:1" /><g
       id="g19"
       style="fill:#0098d7;fill-opacity:1" /><g
       id="g21"
       style="fill:#0098d7;fill-opacity:1" /><g
       id="g23"
       style="fill:#0098d7;fill-opacity:1" /><g
       id="g25"
       style="fill:#0098d7;fill-opacity:1" /><g
       id="g27"
       style="fill:#0098d7;fill-opacity:1" /><g
       id="g29"
       style="fill:#0098d7;fill-opacity:1" /><g
       id="g31"
       style="fill:#0098d7;fill-opacity:1" /><g
       id="g33"
       style="fill:#0098d7;fill-opacity:1" /><g
       id="g35"
       style="fill:#0098d7;fill-opacity:1" /><g
       id="g37"
       style="fill:#0098d7;fill-opacity:1" /><g
       id="g39"
       style="fill:#0098d7;fill-opacity:1" /><g
       id="g41"
       style="fill:#0098d7;fill-opacity:1" /></g><g
     aria-label="GamiPress"
     style="font-style:normal;font-weight:normal;font-size:40px;line-height:125%;font-family:sans-serif;letter-spacing:0px;word-spacing:0px;fill:#0098d7;fill-opacity:1;stroke:none;stroke-width:1px;stroke-linecap:butt;stroke-linejoin:miter;stroke-opacity:1"
     id="text4582"
     transform="translate(-85,-140.62613)"><path
       d="m 329.82646,241.28667 q -11.67334,13.14667 -27.08667,13.14667 -8.16,0 -15.18667,-3.51334 -6.91333,-3.51333 -11.9,-9.29333 -4.98666,-5.78 -7.82,-13.14667 -2.83333,-7.36667 -2.83333,-14.96 0,-7.93333 2.72,-15.3 2.83333,-7.36667 7.70667,-13.03333 4.98666,-5.66667 11.78666,-8.95334 6.8,-3.4 14.84667,-3.4 6.00667,0 10.76667,1.36 4.87333,1.24667 8.61333,3.62667 3.85333,2.26667 6.57333,5.55333 2.83334,3.17334 4.76,7.02667 l -4.76,2.83333 q -4.08,-7.93333 -10.88,-11.44666 -6.68666,-3.62667 -15.18666,-3.62667 -7.14,0 -12.92,3.06 -5.78,3.06 -9.86,8.04667 -4.08,4.98666 -6.23334,11.33333 -2.15333,6.34667 -2.15333,13.03333 0,7.14 2.49333,13.6 2.49334,6.34667 6.8,11.22001 4.42,4.87333 10.31334,7.82 5.89333,2.83333 12.69333,2.83333 7.36667,0 13.94,-3.4 6.68667,-3.4 12.80667,-10.76667 v -15.52667 h -18.24667 v -4.64666 h 23.23333 v 39.1 h -4.98666 z"
       style="font-style:normal;font-variant:normal;font-weight:300;font-stretch:normal;font-size:113.33333588px;font-family:Raleway;-inkscape-font-specification:'Raleway Light';fill:#0098d7;fill-opacity:1"
       id="path4505"
       inkscape:connector-curvature="0" /><path
       d="m 364.59677,255 q -4.08,0 -7.59333,-1.36 -3.51333,-1.47333 -6.23333,-3.85333 -2.60667,-2.49333 -4.08,-5.78 -1.47334,-3.4 -1.47334,-7.25334 0,-3.85333 1.81334,-7.02666 1.81333,-3.17334 4.98666,-5.44 3.28667,-2.38 7.82,-3.62667 4.53334,-1.36 9.97334,-1.36 4.76,0 9.52,0.90667 4.87333,0.79333 8.72666,2.26666 v -5.78 q 0,-8.38666 -4.76,-13.26 -4.76,-4.98666 -12.92,-4.98666 -4.30666,0 -9.18,1.81333 -4.76,1.81333 -9.74666,5.21333 L 349.29677,201.62 q 11.33334,-7.70667 21.53334,-7.70667 10.65333,0 16.77333,6.23334 6.12,6.12 6.12,17 v 28.78667 q 0,2.83333 2.49333,2.83333 v 5.1 q -0.56666,0.11333 -1.24666,0.11333 -0.56667,0.11334 -1.02,0.11334 -2.26667,0 -3.62667,-1.47334 -1.36,-1.58666 -1.58667,-3.74 v -4.87333 q -4.08,5.32667 -10.42666,8.16 Q 371.96344,255 364.59677,255 Z m 1.13334,-4.53333 q 6.57333,0 12.01333,-2.49333 5.55333,-2.49334 8.5,-6.57334 1.81333,-2.38 1.81333,-4.53333 V 226.44 q -4.08,-1.58667 -8.5,-2.38 -4.42,-0.79333 -9.18,-0.79333 -4.42,0 -8.04666,1.02 -3.62667,0.90666 -6.23334,2.60666 -2.60666,1.7 -4.08,4.19334 -1.36,2.38 -1.36,5.32666 0,2.94667 1.13334,5.55334 1.13333,2.60667 3.17333,4.53333 2.04,1.81334 4.76,2.94667 2.83333,1.02 6.00667,1.02 z"
       style="font-style:normal;font-variant:normal;font-weight:300;font-stretch:normal;font-size:113.33333588px;font-family:Raleway;-inkscape-font-specification:'Raleway Light';fill:#0098d7;fill-opacity:1"
       id="path4507"
       inkscape:connector-curvature="0" /><path
       d="M 497.54917,253.86667 H 491.8825 V 221 q 0,-11.22 -3.51333,-16.54667 -3.4,-5.32666 -10.54,-5.32666 -3.62667,0 -6.91334,1.36 -3.28666,1.36 -6.00666,3.85333 -2.72,2.38 -4.76,5.78 -1.92667,3.28667 -3.06,7.36667 v 36.38 H 451.4225 V 221 q 0,-11.33333 -3.4,-16.54667 -3.4,-5.32666 -10.54,-5.32666 -3.62667,0 -6.91334,1.36 -3.17333,1.24666 -5.89333,3.74 -2.72,2.38 -4.87333,5.78 -2.04,3.28666 -3.17334,7.36666 v 36.49334 h -5.66666 v -58.93334 h 5.32666 v 14.05334 q 3.62667,-7.14 9.52,-11.10667 5.89334,-3.96667 13.03334,-3.96667 7.48,0 12.12667,4.42 4.64666,4.42 5.55333,11.56 8.38667,-15.98 23.12,-15.98 9.63333,0 13.71333,6.91334 4.19334,6.8 4.19334,19.15333 z"
       style="font-style:normal;font-variant:normal;font-weight:300;font-stretch:normal;font-size:113.33333588px;font-family:Raleway;-inkscape-font-specification:'Raleway Light';fill:#0098d7;fill-opacity:1"
       id="path4509"
       inkscape:connector-curvature="0" /><path
       d="m 514.55625,253.86667 v -58.93334 h 5.66666 v 58.93334 z m 0,-72.30667 v -10.42667 h 5.66666 V 181.56 Z"
       style="font-style:normal;font-variant:normal;font-weight:300;font-stretch:normal;font-size:113.33333588px;font-family:Raleway;-inkscape-font-specification:'Raleway Light';fill:#0098d7;fill-opacity:1"
       id="path4511"
       inkscape:connector-curvature="0" /><path
       d="M 539.71981,253.86667 V 173.4 h 33.09333 q 5.1,0 9.40667,2.15333 4.30667,2.15334 7.36667,5.78 3.17333,3.51334 4.87333,8.04667 1.81333,4.42 1.81333,8.95333 0,4.87334 -1.7,9.40667 -1.58666,4.53333 -4.64666,8.04667 -2.94667,3.51333 -7.14,5.66666 -4.19334,2.04 -9.29334,2.04 h -27.99333 v 30.37334 z m 5.78,-35.7 h 27.76667 q 3.96666,0 7.14,-1.58667 3.17333,-1.7 5.32666,-4.42 2.26667,-2.83333 3.4,-6.34667 1.24667,-3.62666 1.24667,-7.48 0,-3.96666 -1.47333,-7.48 -1.36,-3.62666 -3.85334,-6.34666 -2.38,-2.72 -5.66666,-4.30667 -3.17334,-1.58667 -6.8,-1.58667 h -27.08667 z"
       style="font-style:normal;font-variant:normal;font-weight:300;font-stretch:normal;font-size:113.33333588px;font-family:Raleway;-inkscape-font-specification:'Raleway Light';fill:#0098d7;fill-opacity:1"
       id="path4513"
       inkscape:connector-curvature="0" /><path
       d="m 636.29044,200.03333 q -7.93334,0.22667 -13.94,4.76 -5.89334,4.42 -8.27334,12.24 v 36.83334 h -5.66667 v -58.93334 h 5.44 V 209.44 q 3.06,-6.23333 8.04667,-10.08667 5.1,-3.96666 10.88,-4.53333 1.13334,-0.11333 2.04,-0.11333 0.90667,0 1.47334,0 z"
       style="font-style:normal;font-variant:normal;font-weight:300;font-stretch:normal;font-size:113.33333588px;font-family:Raleway;-inkscape-font-specification:'Raleway Light';fill:#0098d7;fill-opacity:1"
       id="path4515"
       inkscape:connector-curvature="0" /><path
       d="m 669.31648,255 q -6.23334,0 -11.56,-2.38 -5.32667,-2.49333 -9.29334,-6.68666 -3.85333,-4.30667 -6.12,-9.86001 -2.15333,-5.55333 -2.15333,-11.9 0,-6.23333 2.15333,-11.67333 2.26667,-5.55333 6.12,-9.63333 3.85334,-4.19334 9.06667,-6.57334 5.32667,-2.38 11.44667,-2.38 6.23333,0 11.56,2.49334 5.32666,2.38 9.18,6.57333 3.85333,4.08 6.00666,9.63333 2.15334,5.44 2.15334,11.56 0,0.56667 0,1.47334 0,0.79333 -0.11334,1.02 h -51.68 q 0.34,5.1 2.38,9.52 2.04,4.30667 5.1,7.48 3.17334,3.17333 7.25334,4.98667 4.08,1.81333 8.72666,1.81333 3.06,0 6.00667,-0.79333 2.94667,-0.90667 5.44,-2.38 2.60667,-1.47334 4.53333,-3.51334 2.04,-2.15333 3.17334,-4.64666 l 4.98666,1.36 q -1.24666,3.17333 -3.74,5.89333 -2.38,2.60667 -5.66666,4.53333 -3.17334,1.92667 -7.02667,2.94667 Q 673.39648,255 669.31648,255 Z m 23.12,-32.86667 q -0.34,-5.21333 -2.38,-9.52 -1.92667,-4.30666 -5.1,-7.36666 -3.06,-3.17334 -7.14,-4.87334 -4.08,-1.81333 -8.72667,-1.81333 -4.64667,0 -8.72667,1.81333 -4.08,1.7 -7.25333,4.87334 -3.06,3.06 -4.98667,7.48 -1.81333,4.30666 -2.15333,9.40666 z"
       style="font-style:normal;font-variant:normal;font-weight:300;font-stretch:normal;font-size:113.33333588px;font-family:Raleway;-inkscape-font-specification:'Raleway Light';fill:#0098d7;fill-opacity:1"
       id="path4517"
       inkscape:connector-curvature="0" /><path
       d="m 729.15469,255 q -6.8,0 -13.03334,-2.26666 -6.23333,-2.26667 -10.88,-6.8 l 2.83334,-3.85334 q 4.76,4.30667 9.86,6.34667 5.1,2.04 11.22,2.04 7.70666,0 12.35333,-3.17333 4.76,-3.28667 4.76,-9.06667 0,-2.72 -1.24667,-4.53334 -1.13333,-1.92666 -3.51333,-3.17333 -2.38,-1.36 -5.89333,-2.38 -3.51334,-1.02 -8.16,-2.15333 -4.98667,-1.13334 -8.72667,-2.26667 -3.62667,-1.13333 -6.00667,-2.72 -2.38,-1.58667 -3.62666,-3.85333 -1.13334,-2.26667 -1.13334,-5.78 0,-4.42 1.7,-7.70667 1.7,-3.28667 4.64667,-5.44 3.06,-2.15333 6.91333,-3.17333 3.96667,-1.13334 8.38667,-1.13334 6.91333,0 12.24,2.38 5.32667,2.26667 8.27333,5.89334 l -3.17333,3.06 q -2.94667,-3.4 -7.70667,-5.1 -4.64666,-1.7 -9.97333,-1.7 -3.28667,0 -6.23333,0.68 -2.83334,0.68 -4.98667,2.15333 -2.15333,1.47333 -3.4,3.85333 -1.24667,2.26667 -1.24667,5.44 0,2.60667 0.79334,4.19334 0.90666,1.58666 2.72,2.72 1.92666,1.13333 4.87333,2.04 2.94667,0.79333 7.02667,1.81333 5.55333,1.36 9.86,2.60667 4.30666,1.24666 7.14,3.06 2.94666,1.81333 4.42,4.30666 1.58666,2.49334 1.58666,6.34667 0,7.93334 -6.23333,12.69334 Q 739.46802,255 729.15469,255 Z"
       style="font-style:normal;font-variant:normal;font-weight:300;font-stretch:normal;font-size:113.33333588px;font-family:Raleway;-inkscape-font-specification:'Raleway Light';fill:#0098d7;fill-opacity:1"
       id="path4519"
       inkscape:connector-curvature="0" /><path
       d="m 783.60781,255 q -6.8,0 -13.03333,-2.26666 -6.23334,-2.26667 -10.88,-6.8 l 2.83333,-3.85334 q 4.76,4.30667 9.86,6.34667 5.1,2.04 11.22,2.04 7.70667,0 12.35333,-3.17333 4.76,-3.28667 4.76,-9.06667 0,-2.72 -1.24666,-4.53334 -1.13334,-1.92666 -3.51334,-3.17333 -2.38,-1.36 -5.89333,-2.38 -3.51333,-1.02 -8.16,-2.15333 -4.98667,-1.13334 -8.72667,-2.26667 -3.62666,-1.13333 -6.00666,-2.72 -2.38,-1.58667 -3.62667,-3.85333 -1.13333,-2.26667 -1.13333,-5.78 0,-4.42 1.7,-7.70667 1.7,-3.28667 4.64666,-5.44 3.06,-2.15333 6.91334,-3.17333 3.96666,-1.13334 8.38666,-1.13334 6.91334,0 12.24,2.38 5.32667,2.26667 8.27334,5.89334 l -3.17334,3.06 q -2.94666,-3.4 -7.70666,-5.1 -4.64667,-1.7 -9.97334,-1.7 -3.28666,0 -6.23333,0.68 -2.83333,0.68 -4.98667,2.15333 -2.15333,1.47333 -3.4,3.85333 -1.24666,2.26667 -1.24666,5.44 0,2.60667 0.79333,4.19334 0.90667,1.58666 2.72,2.72 1.92667,1.13333 4.87333,2.04 2.94667,0.79333 7.02667,1.81333 5.55333,1.36 9.86,2.60667 4.30667,1.24666 7.14,3.06 2.94667,1.81333 4.42,4.30666 1.58667,2.49334 1.58667,6.34667 0,7.93334 -6.23334,12.69334 Q 793.92114,255 783.60781,255 Z"
       style="font-style:normal;font-variant:normal;font-weight:300;font-stretch:normal;font-size:113.33333588px;font-family:Raleway;-inkscape-font-specification:'Raleway Light';fill:#0098d7;fill-opacity:1"
       id="path4521"
       inkscape:connector-curvature="0" /></g></svg>